<svg width="87" height="40" viewBox="0 0 87 40" fill="none" xmlns="http://www.w3.org/2000/svg">
<path d="M0.835073 33.162H5.54681C6.22237 35.0699 8.31005 36.3428 10.9737 36.3428C14.6523 36.3428 16.8192 34.2551 16.8192 31.114V27.3561H16.74C15.4478 29.841 12.7638 31.4715 9.5027 31.4715C3.75783 31.4715 0 26.9986 0 19.8608C0 12.6642 3.73749 8.13126 9.62261 8.13126C12.8633 8.13126 15.5067 9.76179 16.8985 12.4062H16.9788V8.50918H21.5513V30.9748C21.5513 36.4424 17.3363 40 10.8153 40C5.40763 40 1.41106 37.1179 0.835073 33.162V33.162ZM16.8588 19.8812C16.8588 15.1887 14.4532 12.0882 10.7757 12.0882C7.157 12.0882 4.81131 15.1095 4.81131 19.8812C4.81131 24.6721 7.157 27.5745 10.7757 27.5745C14.4339 27.5745 16.8588 24.5929 16.8588 19.8812ZM24.3552 0H29.0466V31.372H24.3552V0V0ZM51.2103 28.2694C49.0338 30.416 46.0986 31.6178 43.0416 31.6139C39.9916 31.6185 37.0624 30.422 34.8879 28.2833C39.6574 24.5265 46.4354 24.5222 51.2103 28.2694V28.2694ZM51.3442 28.1355C53.4908 25.959 54.6926 23.0238 54.6887 19.9668C54.6887 16.7925 53.419 13.9157 51.3602 11.8141C47.6013 16.5976 47.597 23.3617 51.3442 28.1355ZM51.2275 11.6814C46.4461 15.4478 39.6467 15.4424 34.8697 11.6675C37.0463 9.51864 39.983 8.31557 43.0416 8.31968C46.232 8.31968 49.1237 9.60334 51.2275 11.6814ZM34.7423 11.7949C32.5934 13.9715 31.3904 16.9082 31.3945 19.9668C31.3945 23.1583 32.6781 26.0489 34.7562 28.1527C38.5226 23.3713 38.5172 16.5719 34.7423 11.7949V11.7949ZM80.2644 31.372H75.3739L70.5626 14.2348H70.463L65.6924 31.372H60.8415L54.5581 8.50918H59.2506L63.4259 26.5211H63.5052L68.2769 8.50918H72.8087L77.6008 26.5211H77.7003L81.8746 8.50918H86.5275L80.2644 31.372V31.372Z" fill="white"/>
</svg>
