<svg width="173" height="40" viewBox="0 0 173 40" fill="none" xmlns="http://www.w3.org/2000/svg">
<g clip-path="url(#clip0_113_40)">
<path d="M58.2293 19.4098V13.4051H61.4534C63.4945 13.4051 64.7369 14.5587 64.7369 16.4222C64.7369 18.2266 63.4945 19.4098 61.4534 19.4098H58.2293ZM61.9564 22.9298C66.0976 22.9298 68.8484 20.2084 68.8484 16.3926C68.8484 12.6064 66.0976 9.85547 61.9564 9.85547H54.1177V30.8275H58.1997V22.9298H61.9564Z" fill="white"/>
<path d="M75.4923 22.2789C75.5811 20.6816 76.5572 19.4393 78.2136 19.4393C80.1067 19.4393 80.9054 20.7113 80.9054 22.3381V30.8275H84.8395V21.6577C84.8395 18.4632 83.1239 15.8897 79.4265 15.8897C78.0361 15.8897 76.4388 16.363 75.4923 17.487V9.41174H71.5582V30.8275H75.4923V22.2789Z" fill="white"/>
<path d="M87.9449 26.8639C87.9449 29.1415 89.8381 31.2416 92.944 31.2416C95.1033 31.2416 96.4935 30.236 97.2331 29.0823C97.2331 29.6443 97.2922 30.443 97.381 30.8275H100.99C100.901 30.3247 100.812 29.2894 100.812 28.5203V21.362C100.812 18.4336 99.0966 15.8306 94.4821 15.8306C90.5775 15.8306 88.4774 18.3448 88.2407 20.6224L91.7312 21.362C91.8495 20.0901 92.796 18.9956 94.5117 18.9956C96.1681 18.9956 96.9668 19.8534 96.9668 20.8887C96.9668 21.3916 96.7006 21.8057 95.8724 21.924L92.2932 22.4564C89.8677 22.8114 87.9449 24.2608 87.9449 26.8639ZM93.7722 28.3133C92.5002 28.3133 91.8791 27.485 91.8791 26.6272C91.8791 25.5032 92.6778 24.9412 93.6834 24.7933L96.9668 24.2904V24.9412C96.9668 27.5146 95.4287 28.3133 93.7722 28.3133Z" fill="white"/>
<path d="M108.712 22.4565C108.712 20.7705 109.718 19.4393 111.433 19.4393C113.326 19.4393 114.125 20.7113 114.125 22.3381V30.8275H118.059V21.6578C118.059 18.4632 116.403 15.8898 112.794 15.8898C111.226 15.8898 109.481 16.5701 108.594 18.0787V16.2742H104.778V30.8275H108.712V22.4565Z" fill="white"/>
<path d="M126.904 11.926H123.353V13.9671C123.353 15.2686 122.644 16.2743 121.106 16.2743H120.366V19.7647H122.999V26.5385C122.999 29.3486 124.773 31.0346 127.613 31.0346C128.767 31.0346 129.477 30.8276 129.832 30.6797V27.4259C129.625 27.4851 129.092 27.5443 128.619 27.5443C127.494 27.5443 126.904 27.1301 126.904 25.8581V19.7647H129.832V16.2743H126.904V11.926Z" fill="white"/>
<path d="M139.566 27.6921C137.643 27.6921 135.868 26.2722 135.868 23.5509C135.868 20.8 137.643 19.4097 139.566 19.4097C141.488 19.4097 143.264 20.8 143.264 23.5509C143.264 26.3019 141.488 27.6921 139.566 27.6921ZM139.566 15.8306C135.218 15.8306 131.934 19.0548 131.934 23.5509C131.934 28.0175 135.218 31.2713 139.566 31.2713C143.914 31.2713 147.198 28.0175 147.198 23.5509C147.198 19.0548 143.914 15.8306 139.566 15.8306Z" fill="white"/>
<path d="M154.236 30.8275V22.3086C154.236 20.7113 155.242 19.4393 156.959 19.4393C158.733 19.4393 159.532 20.6225 159.532 22.1902V30.8275H163.436V22.3086C163.436 20.7408 164.442 19.4393 166.128 19.4393C167.933 19.4393 168.701 20.6225 168.701 22.1902V30.8275H172.518V21.3916C172.518 17.487 169.944 15.8601 167.252 15.8601C165.329 15.8601 163.792 16.5109 162.638 18.2858C161.898 16.718 160.301 15.8601 158.319 15.8601C156.722 15.8601 154.859 16.6293 154.06 18.049V16.2742H150.302V30.8275H154.236Z" fill="white"/>
<path d="M20 40C31.0457 40 40 31.0457 40 20C40 8.95431 31.0457 0 20 0C8.95431 0 0 8.95431 0 20C0 31.0457 8.95431 40 20 40Z" fill="url(#paint0_linear_113_40)"/>
<path d="M34.3179 20.2436H30.7921C30.7921 13.0584 24.9471 7.23401 17.7362 7.23401C10.6148 7.23401 4.82492 12.9159 4.68321 19.978C4.53661 27.278 11.4097 33.617 18.7366 33.617H19.6582C26.1178 33.617 34.7755 28.5783 36.1282 22.439C36.378 21.3074 35.481 20.2436 34.3179 20.2436ZM12.4968 20.5637C12.4968 21.5246 11.7082 22.3104 10.7439 22.3104C9.7796 22.3104 8.99096 21.5242 8.99096 20.5637V17.738C8.99096 16.7771 9.7796 15.9913 10.7439 15.9913C11.7082 15.9913 12.4968 16.7771 12.4968 17.738V20.5637ZM18.5837 20.5637C18.5837 21.5246 17.7951 22.3104 16.8308 22.3104C15.8665 22.3104 15.0779 21.5242 15.0779 20.5637V17.738C15.0779 16.7771 15.8668 15.9913 16.8308 15.9913C17.7951 15.9913 18.5837 16.7771 18.5837 17.738V20.5637Z" fill="url(#paint1_linear_113_40)"/>
</g>
<defs>
<linearGradient id="paint0_linear_113_40" x1="20" y1="0" x2="20" y2="40" gradientUnits="userSpaceOnUse">
<stop stop-color="#534BB1"/>
<stop offset="1" stop-color="#551BF9"/>
</linearGradient>
<linearGradient id="paint1_linear_113_40" x1="20.4255" y1="7.23401" x2="20.4255" y2="33.617" gradientUnits="userSpaceOnUse">
<stop stop-color="white"/>
<stop offset="1" stop-color="white" stop-opacity="0.82"/>
</linearGradient>
<clipPath id="clip0_113_40">
<rect width="172.941" height="40" fill="white"/>
</clipPath>
</defs>
</svg>
